<mxfile host="Electron" modified="2023-05-23T03:16:39.686Z" agent="Mozilla/5.0 (Windows NT 10.0; Win64; x64) AppleWebKit/537.36 (KHTML, like Gecko) draw.io/21.2.8 Chrome/112.0.5615.165 Electron/24.2.0 Safari/537.36" etag="1rdeMLMMPPY2IbniK2bD" version="21.2.8" type="device">
  <diagram name="Page-1" id="IyvD5VRaTulVwldajOv3">
    <mxGraphModel dx="792" dy="838" grid="1" gridSize="10" guides="1" tooltips="1" connect="1" arrows="1" fold="1" page="1" pageScale="1" pageWidth="850" pageHeight="1100" math="0" shadow="0">
      <root>
        <mxCell id="0" />
        <mxCell id="1" parent="0" />
        <mxCell id="JxKdDeBcrVxLVnkztApd-13" value="" style="rounded=0;whiteSpace=wrap;html=1;" vertex="1" parent="1">
          <mxGeometry x="260" y="190" width="210" height="250" as="geometry" />
        </mxCell>
        <mxCell id="JxKdDeBcrVxLVnkztApd-1" value="Optional top-level elements" style="whiteSpace=wrap;html=1;" vertex="1" parent="1">
          <mxGeometry x="270" y="210" width="180" height="20" as="geometry" />
        </mxCell>
        <mxCell id="JxKdDeBcrVxLVnkztApd-15" style="edgeStyle=orthogonalEdgeStyle;rounded=0;orthogonalLoop=1;jettySize=auto;html=1;entryX=0;entryY=0.5;entryDx=0;entryDy=0;dashed=1;" edge="1" parent="1" source="JxKdDeBcrVxLVnkztApd-2" target="JxKdDeBcrVxLVnkztApd-6">
          <mxGeometry relative="1" as="geometry" />
        </mxCell>
        <mxCell id="JxKdDeBcrVxLVnkztApd-2" value="Statement" style="whiteSpace=wrap;html=1;fontStyle=1" vertex="1" parent="1">
          <mxGeometry x="380" y="240" width="70" height="20" as="geometry" />
        </mxCell>
        <mxCell id="JxKdDeBcrVxLVnkztApd-3" value="Statement" style="whiteSpace=wrap;html=1;" vertex="1" parent="1">
          <mxGeometry x="380" y="270" width="70" height="20" as="geometry" />
        </mxCell>
        <mxCell id="JxKdDeBcrVxLVnkztApd-4" value="Statement" style="whiteSpace=wrap;html=1;" vertex="1" parent="1">
          <mxGeometry x="380" y="300" width="70" height="20" as="geometry" />
        </mxCell>
        <mxCell id="JxKdDeBcrVxLVnkztApd-5" value="Statement" style="whiteSpace=wrap;html=1;" vertex="1" parent="1">
          <mxGeometry x="380" y="330" width="70" height="20" as="geometry" />
        </mxCell>
        <mxCell id="JxKdDeBcrVxLVnkztApd-6" value="Statement" style="whiteSpace=wrap;html=1;align=left;verticalAlign=top;spacingLeft=10;fontStyle=1" vertex="1" parent="1">
          <mxGeometry x="540" y="270" width="130" height="220" as="geometry" />
        </mxCell>
        <mxCell id="JxKdDeBcrVxLVnkztApd-7" value="Sid" style="whiteSpace=wrap;html=1;" vertex="1" parent="1">
          <mxGeometry x="560" y="305" width="95" height="20" as="geometry" />
        </mxCell>
        <mxCell id="JxKdDeBcrVxLVnkztApd-8" value="Effect" style="whiteSpace=wrap;html=1;" vertex="1" parent="1">
          <mxGeometry x="560" y="335" width="95" height="20" as="geometry" />
        </mxCell>
        <mxCell id="JxKdDeBcrVxLVnkztApd-9" value="Principal" style="whiteSpace=wrap;html=1;" vertex="1" parent="1">
          <mxGeometry x="560" y="365" width="95" height="20" as="geometry" />
        </mxCell>
        <mxCell id="JxKdDeBcrVxLVnkztApd-10" value="Action" style="whiteSpace=wrap;html=1;" vertex="1" parent="1">
          <mxGeometry x="560" y="395" width="95" height="20" as="geometry" />
        </mxCell>
        <mxCell id="JxKdDeBcrVxLVnkztApd-11" value="Resource" style="whiteSpace=wrap;html=1;" vertex="1" parent="1">
          <mxGeometry x="560" y="425" width="95" height="20" as="geometry" />
        </mxCell>
        <mxCell id="JxKdDeBcrVxLVnkztApd-12" value="Condition Block" style="whiteSpace=wrap;html=1;" vertex="1" parent="1">
          <mxGeometry x="560" y="455" width="95" height="20" as="geometry" />
        </mxCell>
        <mxCell id="JxKdDeBcrVxLVnkztApd-14" value="" style="endArrow=none;dashed=1;html=1;dashPattern=1 3;strokeWidth=2;rounded=0;" edge="1" parent="1">
          <mxGeometry width="50" height="50" relative="1" as="geometry">
            <mxPoint x="414.5" y="420" as="sourcePoint" />
            <mxPoint x="414.5" y="370" as="targetPoint" />
          </mxGeometry>
        </mxCell>
      </root>
    </mxGraphModel>
  </diagram>
</mxfile>
